<svg width="61" height="60" viewBox="0 0 61 60" fill="none" xmlns="http://www.w3.org/2000/svg">
<path fill-rule="evenodd" clip-rule="evenodd" d="M45.5 40.8023C45.5 42.4532 44.1836 44.0277 41.2569 45.2708C38.399 46.4848 34.4807 47.1429 30.5 47.1429C26.5193 47.1429 22.601 46.4848 19.7431 45.2708C16.8164 44.0277 15.5 42.4532 15.5 40.8023V17.0549C15.5 15.404 16.8164 13.8295 19.7431 12.5863C22.601 11.3723 26.5193 10.7143 30.5 10.7143C34.4807 10.7143 38.399 11.3723 41.2569 12.5863C44.1836 13.8295 45.5 15.404 45.5 17.0549V40.8023ZM18.7987 36.9091L16.3742 35.656L16.3495 35.6699V40.8023L16.8528 42.2552L17.8246 43.2324C17.8246 43.2324 19.5549 44.768 20.7343 44.768C23.1074 45.6658 26.4421 46.3355 30.5 46.3355C34.5579 46.3355 37.8926 45.6658 40.2657 44.768C41.445 44.768 43.1754 43.2324 43.1754 43.2324L44.1472 42.2552L44.6505 40.8023V35.6699L44.6258 35.656L42.2013 36.9091C39.3189 38.3988 34.9657 39.2271 30.5 39.2271C26.0343 39.2271 21.6811 38.3988 18.7987 36.9091ZM18.7987 21.0775L16.3742 19.8244L16.3495 19.8383V24.9707L16.8528 26.4236L17.8246 27.4007C17.8246 27.4007 19.5549 28.9364 20.7343 28.9364C23.1074 29.8342 26.4421 30.5038 30.5 30.5038C34.5579 30.5038 37.8926 29.8342 40.2657 28.9364C41.445 28.9364 43.1754 27.4007 43.1754 27.4007L44.1472 26.4236L44.6505 24.9707V19.8383L44.6258 19.8244L42.2013 21.0775C39.3189 22.5672 34.9657 23.3954 30.5 23.3954C26.0343 23.3954 21.6811 22.5672 18.7987 21.0775ZM18.7987 28.9933L16.3742 27.7402L16.3495 27.7541V32.8865L16.8528 34.3394L17.8246 35.3166C17.8246 35.3166 19.5549 36.8522 20.7343 36.8522C23.1074 37.75 26.4421 38.4196 30.5 38.4196C34.5579 38.4196 37.8926 37.75 40.2657 36.8522C41.445 36.8522 43.1754 35.3166 43.1754 35.3166L44.1472 34.3394L44.6505 32.8865V27.7541L44.6258 27.7402L42.2013 28.9933C39.3189 30.483 34.9657 31.3112 30.5 31.3112C26.0343 31.3112 21.6811 30.483 18.7987 28.9933ZM44.6505 17.0549L44.1472 15.6019L43.1754 14.6248C43.1754 14.6248 41.445 13.0892 40.2657 13.0892C37.8926 12.1914 34.5579 11.5217 30.5 11.5217C26.4421 11.5217 23.1074 12.1914 20.7343 13.0892C19.5549 13.0892 17.8246 14.6248 17.8246 14.6248L16.8528 15.6019L16.3495 17.0549L16.8528 18.5078L17.8246 19.4849C17.8246 19.4849 19.5549 21.0206 20.7343 21.0206C23.1074 21.9183 26.4421 22.588 30.5 22.588C34.5579 22.588 37.8926 21.9183 40.2657 21.0206C41.445 21.0206 43.1754 19.4849 43.1754 19.4849L44.1472 18.5078L44.6505 17.0549Z" stroke="#B9C5E1" stroke-width="4" stroke-linecap="round" stroke-linejoin="round"/>
</svg>
