<svg width="60" height="60" viewBox="0 0 60 60" fill="none" xmlns="http://www.w3.org/2000/svg">
<path fill-rule="evenodd" clip-rule="evenodd" d="M19.3667 12.8571C14.5881 12.8571 10.7142 16.7309 10.7142 21.5096V45H42.0329C46.8115 45 50.6854 41.1261 50.6854 36.3475V21.5096C50.6854 16.7309 46.8115 12.8571 42.0329 12.8571H19.3667ZM19.5965 25.3571C19.5965 24.3709 20.396 23.5714 21.3822 23.5714H40.017C41.0032 23.5714 41.8027 24.3709 41.8027 25.3571C41.8027 26.3433 41.0032 27.1428 40.017 27.1428H21.3822C20.396 27.1428 19.5965 26.3433 19.5965 25.3571ZM19.5965 32.5003C19.5965 31.5141 20.396 30.7146 21.3822 30.7146H34.4654C35.4516 30.7146 36.2511 31.5141 36.2511 32.5003C36.2511 33.4865 35.4516 34.286 34.4654 34.286H21.3822C20.396 34.286 19.5965 33.4865 19.5965 32.5003Z" fill="#B9C5E1"/>
</svg>
