<svg width="60" height="60" viewBox="0 0 60 60" fill="none" xmlns="http://www.w3.org/2000/svg">
<path fill-rule="evenodd" clip-rule="evenodd" d="M17.7504 14.2856C17.7504 12.9443 18.8377 11.857 20.1789 11.857H39.8218C41.1631 11.857 42.2504 12.9443 42.2504 14.2856V45.7141C42.2504 47.0554 41.1631 48.1427 39.8218 48.1427H20.1789C18.8377 48.1427 17.7504 47.0554 17.7504 45.7141V14.2856ZM20.1789 8.85699C17.1808 8.85699 14.7504 11.2874 14.7504 14.2856V45.7141C14.7504 48.7123 17.1808 51.1427 20.1789 51.1427H39.8218C42.8199 51.1427 45.2504 48.7123 45.2504 45.7141V14.2856C45.2504 11.2874 42.8199 8.85699 39.8218 8.85699H20.1789ZM30 39.2857C28.6193 39.2857 27.5 40.405 27.5 41.7857C27.5 43.1665 28.6193 44.2857 30 44.2857H30.0222C31.4029 44.2857 32.5222 43.1665 32.5222 41.7857C32.5222 40.405 31.4029 39.2857 30.0222 39.2857H30Z" fill="#B9C5E1"/>
</svg>
